<?xml version='1.0' encoding='utf-8'?>
<svg xmlns="http://www.w3.org/2000/svg" width="877.6mm" height="443.9mm" viewBox="0 0 1000000 505811"><defs><style>.C1 {stroke: #0000ff; stroke-width: 285; stroke-opacity: 1.000; fill: none; fill-opacity: 1.000;}</style><style>.C2 {stroke: none; stroke-width: none; stroke-opacity: 1.000; fill: #ffffff; fill-opacity: 1.000;}</style><style>.C3 {stroke: #00ff00; stroke-width: 285; stroke-opacity: 1.000; fill: none; fill-opacity: 1.000;}</style><style>.C4 {stroke: #ffff00; stroke-width: 285; stroke-opacity: 1.000; fill: none; fill-opacity: 1.000;}</style><style>.C5 {stroke: none; stroke-width: none; stroke-opacity: 1.000; fill: #808080; fill-opacity: 1.000;}</style></defs><rect fill="#212830" x="0" y="0" width="1000000" height="505811" fill-opacity="1.0" /><g stroke-linecap="round" stroke-linejoin="round" fill-rule="evenodd"><path d="M 53670 406023 l 5697 0 l 0 -5697 l -5697 0 l 0 5697" class="C1" /><path d="M 56845 394059 l 0 -2849 l 1922 0 l 0 336 l -1545 0 l 0 882 l 1337 0 l 0 336 l -1337 0 l 0 1294 l -377 0 Z M 60071 394059 l -1104 -2849 l 408 0 l 740 2069 q 89 249 150 466 q 66 -233 154 -466 l 769 -2069 l 385 0 l -1115 2849 l -387 0 Z M 63087 394059 l -350 0 l 0 -2229 q -126 120 -331 241 q -205 120 -368 181 l 0 -338 q 293 -138 513 -334 q 220 -196 311 -381 l 225 0 l 0 2860 Z M 63983 392654 q 0 -505 104 -813 q 104 -308 309 -475 q 205 -167 516 -167 q 229 0 402 92 q 173 92 286 266 q 113 174 177 424 q 64 250 64 673 q 0 501 -103 809 q -103 308 -308 476 q -205 168 -518 168 q -412 0 -647 -295 q -282 -356 -282 -1158 m 359 0 q 0 701 164 934 q 164 232 405 232 q 241 0 405 -233 q 164 -233 164 -933 q 0 -703 -164 -935 q -164 -231 -409 -231 q -241 0 -385 204 q -181 260 -181 962 Z M 67513 394059 l -350 0 l 0 -2229 q -126 120 -331 241 q -205 120 -368 181 l 0 -338 q 293 -138 513 -334 q 220 -196 311 -381 l 225 0 l 0 2860 Z" class="C2" /><path d="M 167617 406023 l 5697 0 l 0 -5697 l -5697 0 l 0 5697" class="C1" /><path d="M 170792 394059 l 0 -2849 l 1922 0 l 0 336 l -1545 0 l 0 882 l 1337 0 l 0 336 l -1337 0 l 0 1294 l -377 0 Z M 174018 394059 l -1104 -2849 l 408 0 l 740 2069 q 89 249 150 466 q 66 -233 154 -466 l 769 -2069 l 385 0 l -1115 2849 l -387 0 Z M 177034 394059 l -350 0 l 0 -2229 q -126 120 -331 241 q -205 120 -368 181 l 0 -338 q 293 -138 513 -334 q 220 -196 311 -381 l 225 0 l 0 2860 Z M 177930 392654 q 0 -505 104 -813 q 104 -308 309 -475 q 205 -167 516 -167 q 229 0 402 92 q 173 92 286 266 q 113 174 177 424 q 64 250 64 673 q 0 501 -103 809 q -103 308 -308 476 q -205 168 -518 168 q -412 0 -647 -295 q -282 -356 -282 -1158 m 359 0 q 0 701 164 934 q 164 232 405 232 q 241 0 405 -233 q 164 -233 164 -933 q 0 -703 -164 -935 q -164 -231 -409 -231 q -241 0 -385 204 q -181 260 -181 962 Z M 181981 393723 l 0 336 l -1883 0 q -4 -126 41 -243 q 72 -192 230 -379 q 158 -187 458 -431 q 464 -381 628 -603 q 163 -222 163 -421 q 0 -208 -149 -351 q -149 -143 -388 -143 q -253 0 -404 152 q -152 152 -154 420 l -359 -37 q 37 -402 278 -613 q 241 -211 647 -211 q 410 0 649 227 q 239 227 239 564 q 0 171 -70 336 q -70 165 -232 348 q -162 183 -539 501 q -315 264 -404 359 q -89 94 -148 189 l 1397 0 Z" class="C2" /><path d="M 281564 406023 l 5697 0 l 0 -5697 l -5697 0 l 0 5697" class="C1" /><path d="M 284739 394059 l 0 -2849 l 1922 0 l 0 336 l -1545 0 l 0 882 l 1337 0 l 0 336 l -1337 0 l 0 1294 l -377 0 Z M 287965 394059 l -1104 -2849 l 408 0 l 740 2069 q 89 249 150 466 q 66 -233 154 -466 l 769 -2069 l 385 0 l -1115 2849 l -387 0 Z M 290981 394059 l -350 0 l 0 -2229 q -126 120 -331 241 q -205 120 -368 181 l 0 -338 q 293 -138 513 -334 q 220 -196 311 -381 l 225 0 l 0 2860 Z M 291877 392654 q 0 -505 104 -813 q 104 -308 309 -475 q 205 -167 516 -167 q 229 0 402 92 q 173 92 286 266 q 113 174 177 424 q 64 250 64 673 q 0 501 -103 809 q -103 308 -308 476 q -205 168 -518 168 q -412 0 -647 -295 q -282 -356 -282 -1158 m 359 0 q 0 701 164 934 q 164 232 405 232 q 241 0 405 -233 q 164 -233 164 -933 q 0 -703 -164 -935 q -164 -231 -409 -231 q -241 0 -385 204 q -181 260 -181 962 Z M 294092 393307 l 350 -47 q 60 297 205 428 q 145 131 353 131 q 247 0 417 -171 q 170 -171 170 -424 q 0 -241 -157 -397 q -157 -156 -400 -156 q -99 0 -247 39 l 39 -307 q 35 4 56 4 q 223 0 402 -117 q 179 -117 179 -359 q 0 -192 -130 -319 q -130 -126 -336 -126 q -204 0 -340 128 q -136 128 -175 385 l -350 -62 q 64 -352 291 -545 q 227 -193 565 -193 q 233 0 429 100 q 196 100 300 273 q 104 173 104 367 q 0 185 -99 336 q -99 152 -293 241 q 253 58 393 242 q 140 184 140 460 q 0 373 -272 632 q -272 259 -688 259 q -375 0 -623 -223 q -248 -223 -283 -579 Z" class="C2" /><path d="M 53670 292076 l 5697 0 l 0 -5697 l -5697 0 l 0 5697" class="C3" /><path d="M 56838 280112 l 0 -2849 l 377 0 l 0 1170 l 1481 0 l 0 -1170 l 377 0 l 0 2849 l -377 0 l 0 -1343 l -1481 0 l 0 1343 l -377 0 Z M 60514 280112 l -1104 -2849 l 408 0 l 740 2069 q 89 249 150 466 q 66 -233 154 -466 l 769 -2069 l 385 0 l -1115 2849 l -387 0 Z M 64051 279776 l 0 336 l -1883 0 q -4 -126 41 -243 q 72 -192 230 -379 q 158 -187 458 -431 q 464 -381 628 -603 q 163 -222 163 -421 q 0 -208 -149 -351 q -149 -143 -388 -143 q -253 0 -404 152 q -152 152 -154 420 l -359 -37 q 37 -402 278 -613 q 241 -211 647 -211 q 410 0 649 227 q 239 227 239 564 q 0 171 -70 336 q -70 165 -232 348 q -162 183 -539 501 q -315 264 -404 359 q -89 94 -148 189 l 1397 0 Z M 64426 278707 q 0 -505 104 -813 q 104 -308 309 -475 q 205 -167 516 -167 q 229 0 402 92 q 173 92 286 266 q 113 174 177 424 q 64 250 64 673 q 0 501 -103 809 q -103 308 -308 476 q -205 168 -518 168 q -412 0 -647 -295 q -282 -356 -282 -1158 m 359 0 q 0 701 164 934 q 164 232 405 232 q 241 0 405 -233 q 164 -233 164 -933 q 0 -703 -164 -935 q -164 -231 -409 -231 q -241 0 -385 204 q -181 260 -181 962 Z M 67956 280112 l -350 0 l 0 -2229 q -126 120 -331 241 q -205 120 -368 181 l 0 -338 q 293 -138 513 -334 q 220 -196 311 -381 l 225 0 l 0 2860 Z" class="C2" /><path d="M 167617 292076 l 5697 0 l 0 -5697 l -5697 0 l 0 5697" class="C3" /><path d="M 170785 280112 l 0 -2849 l 377 0 l 0 1170 l 1481 0 l 0 -1170 l 377 0 l 0 2849 l -377 0 l 0 -1343 l -1481 0 l 0 1343 l -377 0 Z M 174461 280112 l -1104 -2849 l 408 0 l 740 2069 q 89 249 150 466 q 66 -233 154 -466 l 769 -2069 l 385 0 l -1115 2849 l -387 0 Z M 177998 279776 l 0 336 l -1883 0 q -4 -126 41 -243 q 72 -192 230 -379 q 158 -187 458 -431 q 464 -381 628 -603 q 163 -222 163 -421 q 0 -208 -149 -351 q -149 -143 -388 -143 q -253 0 -404 152 q -152 152 -154 420 l -359 -37 q 37 -402 278 -613 q 241 -211 647 -211 q 410 0 649 227 q 239 227 239 564 q 0 171 -70 336 q -70 165 -232 348 q -162 183 -539 501 q -315 264 -404 359 q -89 94 -148 189 l 1397 0 Z M 178373 278707 q 0 -505 104 -813 q 104 -308 309 -475 q 205 -167 516 -167 q 229 0 402 92 q 173 92 286 266 q 113 174 177 424 q 64 250 64 673 q 0 501 -103 809 q -103 308 -308 476 q -205 168 -518 168 q -412 0 -647 -295 q -282 -356 -282 -1158 m 359 0 q 0 701 164 934 q 164 232 405 232 q 241 0 405 -233 q 164 -233 164 -933 q 0 -703 -164 -935 q -164 -231 -409 -231 q -241 0 -385 204 q -181 260 -181 962 Z M 182424 279776 l 0 336 l -1883 0 q -4 -126 41 -243 q 72 -192 230 -379 q 158 -187 458 -431 q 464 -381 628 -603 q 163 -222 163 -421 q 0 -208 -149 -351 q -149 -143 -388 -143 q -253 0 -404 152 q -152 152 -154 420 l -359 -37 q 37 -402 278 -613 q 241 -211 647 -211 q 410 0 649 227 q 239 227 239 564 q 0 171 -70 336 q -70 165 -232 348 q -162 183 -539 501 q -315 264 -404 359 q -89 94 -148 189 l 1397 0 Z" class="C2" /><path d="M 281564 292076 l 5697 0 l 0 -5697 l -5697 0 l 0 5697" class="C3" /><path d="M 284732 280112 l 0 -2849 l 377 0 l 0 1170 l 1481 0 l 0 -1170 l 377 0 l 0 2849 l -377 0 l 0 -1343 l -1481 0 l 0 1343 l -377 0 Z M 288408 280112 l -1104 -2849 l 408 0 l 740 2069 q 89 249 150 466 q 66 -233 154 -466 l 769 -2069 l 385 0 l -1115 2849 l -387 0 Z M 291945 279776 l 0 336 l -1883 0 q -4 -126 41 -243 q 72 -192 230 -379 q 158 -187 458 -431 q 464 -381 628 -603 q 163 -222 163 -421 q 0 -208 -149 -351 q -149 -143 -388 -143 q -253 0 -404 152 q -152 152 -154 420 l -359 -37 q 37 -402 278 -613 q 241 -211 647 -211 q 410 0 649 227 q 239 227 239 564 q 0 171 -70 336 q -70 165 -232 348 q -162 183 -539 501 q -315 264 -404 359 q -89 94 -148 189 l 1397 0 Z M 292320 278707 q 0 -505 104 -813 q 104 -308 309 -475 q 205 -167 516 -167 q 229 0 402 92 q 173 92 286 266 q 113 174 177 424 q 64 250 64 673 q 0 501 -103 809 q -103 308 -308 476 q -205 168 -518 168 q -412 0 -647 -295 q -282 -356 -282 -1158 m 359 0 q 0 701 164 934 q 164 232 405 232 q 241 0 405 -233 q 164 -233 164 -933 q 0 -703 -164 -935 q -164 -231 -409 -231 q -241 0 -385 204 q -181 260 -181 962 Z M 294535 279360 l 350 -47 q 60 297 205 428 q 145 131 353 131 q 247 0 417 -171 q 170 -171 170 -424 q 0 -241 -157 -397 q -157 -156 -400 -156 q -99 0 -247 39 l 39 -307 q 35 4 56 4 q 223 0 402 -117 q 179 -117 179 -359 q 0 -192 -130 -319 q -130 -126 -336 -126 q -204 0 -340 128 q -136 128 -175 385 l -350 -62 q 64 -352 291 -545 q 227 -193 565 -193 q 233 0 429 100 q 196 100 300 273 q 104 173 104 367 q 0 185 -99 336 q -99 152 -293 241 q 253 58 393 242 q 140 184 140 460 q 0 373 -272 632 q -272 259 -688 259 q -375 0 -623 -223 q -248 -223 -283 -579 Z" class="C2" /><path d="M 53670 178129 l 5697 0 l 0 -5697 l -5697 0 l 0 5697" class="C4" /><path d="M 56834 166165 l 0 -2849 l 2060 0 l 0 336 l -1683 0 l 0 872 l 1576 0 l 0 334 l -1576 0 l 0 970 l 1749 0 l 0 336 l -2126 0 Z M 60294 166165 l -1104 -2849 l 408 0 l 740 2069 q 89 249 150 466 q 66 -233 154 -466 l 769 -2069 l 385 0 l -1115 2849 l -387 0 Z M 61995 165413 l 350 -47 q 60 297 205 428 q 145 131 353 131 q 247 0 417 -171 q 170 -171 170 -424 q 0 -241 -157 -397 q -157 -156 -400 -156 q -99 0 -247 39 l 39 -307 q 35 4 56 4 q 223 0 402 -117 q 179 -117 179 -359 q 0 -192 -130 -319 q -130 -126 -336 -126 q -204 0 -340 128 q -136 128 -175 385 l -350 -62 q 64 -352 291 -545 q 227 -193 565 -193 q 233 0 429 100 q 196 100 300 273 q 104 173 104 367 q 0 185 -99 336 q -99 152 -293 241 q 253 58 393 242 q 140 184 140 460 q 0 373 -272 632 q -272 259 -688 259 q -375 0 -623 -223 q -248 -223 -283 -579 Z M 64206 164760 q 0 -505 104 -813 q 104 -308 309 -475 q 205 -167 516 -167 q 229 0 402 92 q 173 92 286 266 q 113 174 177 424 q 64 250 64 673 q 0 501 -103 809 q -103 308 -308 476 q -205 168 -518 168 q -412 0 -647 -295 q -282 -356 -282 -1158 m 359 0 q 0 701 164 934 q 164 232 405 232 q 241 0 405 -233 q 164 -233 164 -933 q 0 -703 -164 -935 q -164 -231 -409 -231 q -241 0 -385 204 q -181 260 -181 962 Z M 67737 166165 l -350 0 l 0 -2229 q -126 120 -331 241 q -205 120 -368 181 l 0 -338 q 293 -138 513 -334 q 220 -196 311 -381 l 225 0 l 0 2860 Z" class="C2" /><path d="M 167617 178129 l 5697 0 l 0 -5697 l -5697 0 l 0 5697" class="C4" /><path d="M 170781 166165 l 0 -2849 l 2060 0 l 0 336 l -1683 0 l 0 872 l 1576 0 l 0 334 l -1576 0 l 0 970 l 1749 0 l 0 336 l -2126 0 Z M 174241 166165 l -1104 -2849 l 408 0 l 740 2069 q 89 249 150 466 q 66 -233 154 -466 l 769 -2069 l 385 0 l -1115 2849 l -387 0 Z M 175942 165413 l 350 -47 q 60 297 205 428 q 145 131 353 131 q 247 0 417 -171 q 170 -171 170 -424 q 0 -241 -157 -397 q -157 -156 -400 -156 q -99 0 -247 39 l 39 -307 q 35 4 56 4 q 223 0 402 -117 q 179 -117 179 -359 q 0 -192 -130 -319 q -130 -126 -336 -126 q -204 0 -340 128 q -136 128 -175 385 l -350 -62 q 64 -352 291 -545 q 227 -193 565 -193 q 233 0 429 100 q 196 100 300 273 q 104 173 104 367 q 0 185 -99 336 q -99 152 -293 241 q 253 58 393 242 q 140 184 140 460 q 0 373 -272 632 q -272 259 -688 259 q -375 0 -623 -223 q -248 -223 -283 -579 Z M 178153 164760 q 0 -505 104 -813 q 104 -308 309 -475 q 205 -167 516 -167 q 229 0 402 92 q 173 92 286 266 q 113 174 177 424 q 64 250 64 673 q 0 501 -103 809 q -103 308 -308 476 q -205 168 -518 168 q -412 0 -647 -295 q -282 -356 -282 -1158 m 359 0 q 0 701 164 934 q 164 232 405 232 q 241 0 405 -233 q 164 -233 164 -933 q 0 -703 -164 -935 q -164 -231 -409 -231 q -241 0 -385 204 q -181 260 -181 962 Z M 182205 165829 l 0 336 l -1883 0 q -4 -126 41 -243 q 72 -192 230 -379 q 158 -187 458 -431 q 464 -381 628 -603 q 163 -222 163 -421 q 0 -208 -149 -351 q -149 -143 -388 -143 q -253 0 -404 152 q -152 152 -154 420 l -359 -37 q 37 -402 278 -613 q 241 -211 647 -211 q 410 0 649 227 q 239 227 239 564 q 0 171 -70 336 q -70 165 -232 348 q -162 183 -539 501 q -315 264 -404 359 q -89 94 -148 189 l 1397 0 Z" class="C2" /><path d="M 281564 178129 l 5697 0 l 0 -5697 l -5697 0 l 0 5697" class="C4" /><path d="M 284728 166165 l 0 -2849 l 2060 0 l 0 336 l -1683 0 l 0 872 l 1576 0 l 0 334 l -1576 0 l 0 970 l 1749 0 l 0 336 l -2126 0 Z M 288188 166165 l -1104 -2849 l 408 0 l 740 2069 q 89 249 150 466 q 66 -233 154 -466 l 769 -2069 l 385 0 l -1115 2849 l -387 0 Z M 289889 165413 l 350 -47 q 60 297 205 428 q 145 131 353 131 q 247 0 417 -171 q 170 -171 170 -424 q 0 -241 -157 -397 q -157 -156 -400 -156 q -99 0 -247 39 l 39 -307 q 35 4 56 4 q 223 0 402 -117 q 179 -117 179 -359 q 0 -192 -130 -319 q -130 -126 -336 -126 q -204 0 -340 128 q -136 128 -175 385 l -350 -62 q 64 -352 291 -545 q 227 -193 565 -193 q 233 0 429 100 q 196 100 300 273 q 104 173 104 367 q 0 185 -99 336 q -99 152 -293 241 q 253 58 393 242 q 140 184 140 460 q 0 373 -272 632 q -272 259 -688 259 q -375 0 -623 -223 q -248 -223 -283 -579 Z M 292100 164760 q 0 -505 104 -813 q 104 -308 309 -475 q 205 -167 516 -167 q 229 0 402 92 q 173 92 286 266 q 113 174 177 424 q 64 250 64 673 q 0 501 -103 809 q -103 308 -308 476 q -205 168 -518 168 q -412 0 -647 -295 q -282 -356 -282 -1158 m 359 0 q 0 701 164 934 q 164 232 405 232 q 241 0 405 -233 q 164 -233 164 -933 q 0 -703 -164 -935 q -164 -231 -409 -231 q -241 0 -385 204 q -181 260 -181 962 Z M 294315 165413 l 350 -47 q 60 297 205 428 q 145 131 353 131 q 247 0 417 -171 q 170 -171 170 -424 q 0 -241 -157 -397 q -157 -156 -400 -156 q -99 0 -247 39 l 39 -307 q 35 4 56 4 q 223 0 402 -117 q 179 -117 179 -359 q 0 -192 -130 -319 q -130 -126 -336 -126 q -204 0 -340 128 q -136 128 -175 385 l -350 -62 q 64 -352 291 -545 q 227 -193 565 -193 q 233 0 429 100 q 196 100 300 273 q 104 173 104 367 q 0 185 -99 336 q -99 152 -293 241 q 253 58 393 242 q 140 184 140 460 q 0 373 -272 632 q -272 259 -688 259 q -375 0 -623 -223 q -248 -223 -283 -579 Z" class="C2" /><path d="M 395511 406023 l 5697 0 l 0 -5697 l -5697 0 l 0 5697" class="C1" /><path d="M 400700 393060 l 377 95 q -119 464 -427 708 q -308 244 -753 244 q -461 0 -749 -188 q -289 -188 -439 -543 q -151 -356 -151 -764 q 0 -445 170 -776 q 170 -331 484 -503 q 314 -172 691 -172 q 427 0 719 218 q 291 218 406 612 l -371 87 q -99 -311 -288 -453 q -188 -142 -474 -142 q -328 0 -549 157 q -221 157 -310 423 q -89 265 -89 547 q 0 363 106 634 q 106 271 329 405 q 223 134 484 134 q 317 0 536 -183 q 220 -183 297 -542 Z M 402355 394059 l -1104 -2849 l 408 0 l 740 2069 q 89 249 150 466 q 66 -233 154 -466 l 769 -2069 l 385 0 l -1115 2849 l -387 0 Z M 405175 394059 l 0 -682 l -1236 0 l 0 -321 l 1300 -1846 l 286 0 l 0 1846 l 385 0 l 0 321 l -385 0 l 0 682 l -350 0 m 0 -1003 l 0 -1284 l -892 1284 l 892 0 Z M 406267 392654 q 0 -505 104 -813 q 104 -308 309 -475 q 205 -167 516 -167 q 229 0 402 92 q 173 92 286 266 q 113 174 177 424 q 64 250 64 673 q 0 501 -103 809 q -103 308 -308 476 q -205 168 -518 168 q -412 0 -647 -295 q -282 -356 -282 -1158 m 359 0 q 0 701 164 934 q 164 232 405 232 q 241 0 405 -233 q 164 -233 164 -933 q 0 -703 -164 -935 q -164 -231 -409 -231 q -241 0 -385 204 q -181 260 -181 962 Z M 409797 394059 l -350 0 l 0 -2229 q -126 120 -331 241 q -205 120 -368 181 l 0 -338 q 293 -138 513 -334 q 220 -196 311 -381 l 225 0 l 0 2860 Z" class="C2" /><path d="M 509458 406023 l 5697 0 l 0 -5697 l -5697 0 l 0 5697" class="C1" /><path d="M 513269 394059 l 0 -2849 l 1922 0 l 0 336 l -1545 0 l 0 882 l 1337 0 l 0 336 l -1337 0 l 0 1294 l -377 0 Z M 516495 394059 l -1104 -2849 l 408 0 l 740 2069 q 89 249 150 466 q 66 -233 154 -466 l 769 -2069 l 385 0 l -1115 2849 l -387 0 Z" class="C2" /><path d="M 514247 396731 l 367 -31 q 41 268 189 403 q 149 135 359 135 q 253 0 427 -190 q 175 -190 175 -505 q 0 -299 -168 -472 q -168 -173 -440 -173 q -169 0 -305 77 q -136 77 -214 199 l -328 -43 l 276 -1463 l 1417 0 l 0 334 l -1137 0 l -154 766 q 256 -179 538 -179 q 373 0 630 258 q 256 258 256 665 q 0 387 -225 668 q -274 346 -748 346 q -389 0 -634 -218 q -246 -218 -281 -577 Z M 516460 396073 q 0 -505 104 -813 q 104 -308 309 -475 q 205 -167 516 -167 q 229 0 402 92 q 173 92 286 266 q 113 174 177 424 q 64 250 64 673 q 0 501 -103 809 q -103 308 -308 476 q -205 168 -518 168 q -412 0 -647 -295 q -282 -356 -282 -1158 m 359 0 q 0 701 164 934 q 164 232 405 232 q 241 0 405 -233 q 164 -233 164 -933 q 0 -703 -164 -935 q -164 -231 -409 -231 q -241 0 -385 204 q -181 260 -181 962 Z M 519991 397477 l -350 0 l 0 -2229 q -126 120 -331 241 q -205 120 -368 181 l 0 -338 q 293 -138 513 -334 q 220 -196 311 -381 l 225 0 l 0 2860 Z" class="C2" /><path d="M 623405 406023 l 5697 0 l 0 -5697 l -5697 0 l 0 5697" class="C1" /><path d="M 624416 394059 l 0 -2849 l 1922 0 l 0 336 l -1545 0 l 0 882 l 1337 0 l 0 336 l -1337 0 l 0 1294 l -377 0 Z M 627641 394059 l -1104 -2849 l 408 0 l 740 2069 q 89 249 150 466 q 66 -233 154 -466 l 769 -2069 l 385 0 l -1115 2849 l -387 0 Z" class="C2" /><path d="M 625394 396731 l 367 -31 q 41 268 189 403 q 149 135 359 135 q 253 0 427 -190 q 175 -190 175 -505 q 0 -299 -168 -472 q -168 -173 -440 -173 q -169 0 -305 77 q -136 77 -214 199 l -328 -43 l 276 -1463 l 1417 0 l 0 334 l -1137 0 l -154 766 q 256 -179 538 -179 q 373 0 630 258 q 256 258 256 665 q 0 387 -225 668 q -274 346 -748 346 q -389 0 -634 -218 q -246 -218 -281 -577 Z M 627607 396073 q 0 -505 104 -813 q 104 -308 309 -475 q 205 -167 516 -167 q 229 0 402 92 q 173 92 286 266 q 113 174 177 424 q 64 250 64 673 q 0 501 -103 809 q -103 308 -308 476 q -205 168 -518 168 q -412 0 -647 -295 q -282 -356 -282 -1158 m 359 0 q 0 701 164 934 q 164 232 405 232 q 241 0 405 -233 q 164 -233 164 -933 q 0 -703 -164 -935 q -164 -231 -409 -231 q -241 0 -385 204 q -181 260 -181 962 Z M 631659 397141 l 0 336 l -1883 0 q -4 -126 41 -243 q 72 -192 230 -379 q 158 -187 458 -431 q 464 -381 628 -603 q 163 -222 163 -421 q 0 -208 -149 -351 q -149 -143 -388 -143 q -253 0 -404 152 q -152 152 -154 420 l -359 -37 q 37 -402 278 -613 q 241 -211 647 -211 q 410 0 649 227 q 239 227 239 564 q 0 171 -70 336 q -70 165 -232 348 q -162 183 -539 501 q -315 264 -404 359 q -89 94 -148 189 l 1397 0 Z" class="C2" /><path d="M 509458 292076 l 5697 0 l 0 -5697 l -5697 0 l 0 5697" class="C3" /><path d="M 511600 280112 l 0 -2849 l 377 0 l 0 1170 l 1481 0 l 0 -1170 l 377 0 l 0 2849 l -377 0 l 0 -1343 l -1481 0 l 0 1343 l -377 0 Z M 515277 280112 l -1104 -2849 l 408 0 l 740 2069 q 89 249 150 466 q 66 -233 154 -466 l 769 -2069 l 385 0 l -1115 2849 l -387 0 Z" class="C2" /><path d="M 514401 281379 l -348 27 q -47 -206 -132 -299 q -142 -150 -350 -150 q -167 0 -293 93 q -165 120 -260 352 q -95 231 -99 659 q 126 -192 309 -286 q 183 -93 383 -93 q 350 0 596 257 q 246 257 246 666 q 0 268 -116 498 q -116 230 -318 353 q -202 122 -459 122 q -437 0 -713 -322 q -276 -322 -276 -1060 q 0 -826 305 -1201 q 266 -326 717 -326 q 336 0 551 188 q 215 188 257 521 m -1428 1228 q 0 181 77 346 q 77 165 215 252 q 138 86 290 86 q 222 0 381 -179 q 159 -179 159 -486 q 0 -295 -157 -465 q -157 -170 -396 -170 q -237 0 -402 170 q -165 170 -165 446 Z M 514800 282125 q 0 -505 104 -813 q 104 -308 309 -475 q 205 -167 516 -167 q 229 0 402 92 q 173 92 286 266 q 113 174 177 424 q 64 250 64 673 q 0 501 -103 809 q -103 308 -308 476 q -205 168 -518 168 q -412 0 -647 -295 q -282 -356 -282 -1158 m 359 0 q 0 701 164 934 q 164 232 405 232 q 241 0 405 -233 q 164 -233 164 -933 q 0 -703 -164 -935 q -164 -231 -409 -231 q -241 0 -385 204 q -181 260 -181 962 Z M 518330 283530 l -350 0 l 0 -2229 q -126 120 -331 241 q -205 120 -368 181 l 0 -338 q 293 -138 513 -334 q 220 -196 311 -381 l 225 0 l 0 2860 Z" class="C2" /><path d="M 623405 292076 l 5697 0 l 0 -5697 l -5697 0 l 0 5697" class="C3" /><path d="M 625311 280112 l 0 -2849 l 377 0 l 0 1170 l 1481 0 l 0 -1170 l 377 0 l 0 2849 l -377 0 l 0 -1343 l -1481 0 l 0 1343 l -377 0 Z M 628988 280112 l -1104 -2849 l 408 0 l 740 2069 q 89 249 150 466 q 66 -233 154 -466 l 769 -2069 l 385 0 l -1115 2849 l -387 0 Z" class="C2" /><path d="M 628112 281379 l -348 27 q -47 -206 -132 -299 q -142 -150 -350 -150 q -167 0 -293 93 q -165 120 -260 352 q -95 231 -99 659 q 126 -192 309 -286 q 183 -93 383 -93 q 350 0 596 257 q 246 257 246 666 q 0 268 -116 498 q -116 230 -318 353 q -202 122 -459 122 q -437 0 -713 -322 q -276 -322 -276 -1060 q 0 -826 305 -1201 q 266 -326 717 -326 q 336 0 551 188 q 215 188 257 521 m -1428 1228 q 0 181 77 346 q 77 165 215 252 q 138 86 290 86 q 222 0 381 -179 q 159 -179 159 -486 q 0 -295 -157 -465 q -157 -170 -396 -170 q -237 0 -402 170 q -165 170 -165 446 Z M 628510 282125 q 0 -505 104 -813 q 104 -308 309 -475 q 205 -167 516 -167 q 229 0 402 92 q 173 92 286 266 q 113 174 177 424 q 64 250 64 673 q 0 501 -103 809 q -103 308 -308 476 q -205 168 -518 168 q -412 0 -647 -295 q -282 -356 -282 -1158 m 359 0 q 0 701 164 934 q 164 232 405 232 q 241 0 405 -233 q 164 -233 164 -933 q 0 -703 -164 -935 q -164 -231 -409 -231 q -241 0 -385 204 q -181 260 -181 962 Z M 632562 283194 l 0 336 l -1883 0 q -4 -126 41 -243 q 72 -192 230 -379 q 158 -187 458 -431 q 464 -381 628 -603 q 163 -222 163 -421 q 0 -208 -149 -351 q -149 -143 -388 -143 q -253 0 -404 152 q -152 152 -154 420 l -359 -37 q 37 -402 278 -613 q 241 -211 647 -211 q 410 0 649 227 q 239 227 239 564 q 0 171 -70 336 q -70 165 -232 348 q -162 183 -539 501 q -315 264 -404 359 q -89 94 -148 189 l 1397 0 Z" class="C2" /><path d="M 509458 178129 l 5697 0 l 0 -5697 l -5697 0 l 0 5697" class="C4" /><path d="M 513700 166165 l 0 -2849 l 2060 0 l 0 336 l -1683 0 l 0 872 l 1576 0 l 0 334 l -1576 0 l 0 970 l 1749 0 l 0 336 l -2126 0 Z M 517160 166165 l -1104 -2849 l 408 0 l 740 2069 q 89 249 150 466 q 66 -233 154 -466 l 769 -2069 l 385 0 l -1115 2849 l -387 0 Z" class="C2" /><path d="M 514713 167108 l 0 -336 l 1844 0 l 0 272 q -272 290 -539 769 q -267 480 -413 987 q -105 358 -134 783 l -359 0 q 6 -336 132 -812 q 126 -476 362 -918 q 236 -442 502 -745 l -1395 0 Z M 516903 168178 q 0 -505 104 -813 q 104 -308 309 -475 q 205 -167 516 -167 q 229 0 402 92 q 173 92 286 266 q 113 174 177 424 q 64 250 64 673 q 0 501 -103 809 q -103 308 -308 476 q -205 168 -518 168 q -412 0 -647 -295 q -282 -356 -282 -1158 m 359 0 q 0 701 164 934 q 164 232 405 232 q 241 0 405 -233 q 164 -233 164 -933 q 0 -703 -164 -935 q -164 -231 -409 -231 q -241 0 -385 204 q -181 260 -181 962 Z M 520433 169583 l -350 0 l 0 -2229 q -126 120 -331 241 q -205 120 -368 181 l 0 -338 q 293 -138 513 -334 q 220 -196 311 -381 l 225 0 l 0 2860 Z" class="C2" /><path d="M 623405 178129 l 5697 0 l 0 -5697 l -5697 0 l 0 5697" class="C4" /><path d="M 627374 166165 l 0 -2849 l 2060 0 l 0 336 l -1683 0 l 0 872 l 1576 0 l 0 334 l -1576 0 l 0 970 l 1749 0 l 0 336 l -2126 0 Z M 630835 166165 l -1104 -2849 l 408 0 l 740 2069 q 89 249 150 466 q 66 -233 154 -466 l 769 -2069 l 385 0 l -1115 2849 l -387 0 Z" class="C2" /><path d="M 628387 167108 l 0 -336 l 1844 0 l 0 272 q -272 290 -539 769 q -267 480 -413 987 q -105 358 -134 783 l -359 0 q 6 -336 132 -812 q 126 -476 362 -918 q 236 -442 502 -745 l -1395 0 Z M 630577 168178 q 0 -505 104 -813 q 104 -308 309 -475 q 205 -167 516 -167 q 229 0 402 92 q 173 92 286 266 q 113 174 177 424 q 64 250 64 673 q 0 501 -103 809 q -103 308 -308 476 q -205 168 -518 168 q -412 0 -647 -295 q -282 -356 -282 -1158 m 359 0 q 0 701 164 934 q 164 232 405 232 q 241 0 405 -233 q 164 -233 164 -933 q 0 -703 -164 -935 q -164 -231 -409 -231 q -241 0 -385 204 q -181 260 -181 962 Z M 634629 169247 l 0 336 l -1883 0 q -4 -126 41 -243 q 72 -192 230 -379 q 158 -187 458 -431 q 464 -381 628 -603 q 163 -222 163 -421 q 0 -208 -149 -351 q -149 -143 -388 -143 q -253 0 -404 152 q -152 152 -154 420 l -359 -37 q 37 -402 278 -613 q 241 -211 647 -211 q 410 0 649 227 q 239 227 239 564 q 0 171 -70 336 q -70 165 -232 348 q -162 183 -539 501 q -315 264 -404 359 q -89 94 -148 189 l 1397 0 Z" class="C2" /><path d="M 737352 406023 l 5697 0 l 0 -5697 l -5697 0 l 0 5697" class="C1" /><path d="M 742296 394059 l 0 -2849 l 1075 0 q 284 0 433 27 q 210 35 352 133 q 142 98 228 275 q 86 177 86 389 q 0 363 -231 615 q -231 252 -836 252 l -731 0 l 0 1158 l -377 0 m 377 -1494 l 736 0 q 365 0 519 -136 q 154 -136 154 -383 q 0 -179 -90 -306 q -90 -127 -238 -168 q -95 -25 -352 -25 l -729 0 l 0 1018 Z M 744822 393144 l 356 -31 q 25 214 118 351 q 92 137 287 222 q 194 85 437 85 q 216 0 381 -64 q 165 -64 246 -176 q 81 -112 81 -244 q 0 -134 -78 -234 q -78 -100 -256 -168 q -115 -45 -507 -139 q -393 -94 -550 -178 q -204 -107 -304 -265 q -100 -158 -100 -355 q 0 -216 122 -403 q 122 -188 358 -285 q 235 -97 523 -97 q 317 0 559 102 q 242 102 372 300 q 130 198 140 449 l -361 27 q -29 -270 -197 -408 q -168 -138 -496 -138 q -342 0 -498 125 q -156 125 -156 302 q 0 154 111 253 q 109 99 568 203 q 460 104 631 182 q 249 115 367 291 q 119 176 119 405 q 0 227 -130 428 q -130 201 -374 313 q -244 112 -549 112 q -387 0 -648 -113 q -261 -113 -410 -339 q -149 -226 -156 -512 Z M 748419 394059 l -1104 -2849 l 408 0 l 740 2069 q 89 249 150 466 q 66 -233 154 -466 l 769 -2069 l 385 0 l -1115 2849 l -387 0 Z" class="C2" /><path d="M 743832 395933 q -218 -80 -323 -227 q -105 -148 -105 -354 q 0 -311 223 -523 q 223 -212 595 -212 q 373 0 600 217 q 227 217 227 528 q 0 198 -104 345 q -104 147 -316 226 q 262 85 399 276 q 137 190 137 455 q 0 365 -258 614 q -258 249 -680 249 q -422 0 -680 -250 q -258 -250 -258 -623 q 0 -278 141 -465 q 141 -188 401 -256 m -70 -593 q 0 202 130 330 q 130 128 338 128 q 202 0 331 -127 q 129 -127 129 -312 q 0 -192 -133 -324 q -133 -131 -331 -131 q -200 0 -332 128 q -132 128 -132 307 m -113 1316 q 0 150 71 290 q 71 140 211 217 q 140 77 301 77 q 251 0 414 -161 q 163 -161 163 -410 q 0 -253 -168 -418 q -168 -165 -421 -165 q -247 0 -409 163 q -162 163 -162 408 Z M 745507 396073 q 0 -505 104 -813 q 104 -308 309 -475 q 205 -167 516 -167 q 229 0 402 92 q 173 92 286 266 q 113 174 177 424 q 64 250 64 673 q 0 501 -103 809 q -103 308 -308 476 q -205 168 -518 168 q -412 0 -647 -295 q -282 -356 -282 -1158 m 359 0 q 0 701 164 934 q 164 232 405 232 q 241 0 405 -233 q 164 -233 164 -933 q 0 -703 -164 -935 q -164 -231 -409 -231 q -241 0 -385 204 q -181 260 -181 962 Z M 749037 397477 l -350 0 l 0 -2229 q -126 120 -331 241 q -205 120 -368 181 l 0 -338 q 293 -138 513 -334 q 220 -196 311 -381 l 225 0 l 0 2860 Z" class="C2" /><path d="M 851299 406023 l 5697 0 l 0 -5697 l -5697 0 l 0 5697" class="C1" /><path d="M 852573 394059 l 0 -2849 l 1075 0 q 284 0 433 27 q 210 35 352 133 q 142 98 228 275 q 86 177 86 389 q 0 363 -231 615 q -231 252 -836 252 l -731 0 l 0 1158 l -377 0 m 377 -1494 l 736 0 q 365 0 519 -136 q 154 -136 154 -383 q 0 -179 -90 -306 q -90 -127 -238 -168 q -95 -25 -352 -25 l -729 0 l 0 1018 Z M 855099 393144 l 356 -31 q 25 214 118 351 q 92 137 287 222 q 194 85 437 85 q 216 0 381 -64 q 165 -64 246 -176 q 81 -112 81 -244 q 0 -134 -78 -234 q -78 -100 -256 -168 q -115 -45 -507 -139 q -393 -94 -550 -178 q -204 -107 -304 -265 q -100 -158 -100 -355 q 0 -216 122 -403 q 122 -188 358 -285 q 235 -97 523 -97 q 317 0 559 102 q 242 102 372 300 q 130 198 140 449 l -361 27 q -29 -270 -197 -408 q -168 -138 -496 -138 q -342 0 -498 125 q -156 125 -156 302 q 0 154 111 253 q 109 99 568 203 q 460 104 631 182 q 249 115 367 291 q 119 176 119 405 q 0 227 -130 428 q -130 201 -374 313 q -244 112 -549 112 q -387 0 -648 -113 q -261 -113 -410 -339 q -149 -226 -156 -512 Z M 858695 394059 l -1104 -2849 l 408 0 l 740 2069 q 89 249 150 466 q 66 -233 154 -466 l 769 -2069 l 385 0 l -1115 2849 l -387 0 Z" class="C2" /><path d="M 854108 395933 q -218 -80 -323 -227 q -105 -148 -105 -354 q 0 -311 223 -523 q 223 -212 595 -212 q 373 0 600 217 q 227 217 227 528 q 0 198 -104 345 q -104 147 -316 226 q 262 85 399 276 q 137 190 137 455 q 0 365 -258 614 q -258 249 -680 249 q -422 0 -680 -250 q -258 -250 -258 -623 q 0 -278 141 -465 q 141 -188 401 -256 m -70 -593 q 0 202 130 330 q 130 128 338 128 q 202 0 331 -127 q 129 -127 129 -312 q 0 -192 -133 -324 q -133 -131 -331 -131 q -200 0 -332 128 q -132 128 -132 307 m -113 1316 q 0 150 71 290 q 71 140 211 217 q 140 77 301 77 q 251 0 414 -161 q 163 -161 163 -410 q 0 -253 -168 -418 q -168 -165 -421 -165 q -247 0 -409 163 q -162 163 -162 408 Z M 855783 396073 q 0 -505 104 -813 q 104 -308 309 -475 q 205 -167 516 -167 q 229 0 402 92 q 173 92 286 266 q 113 174 177 424 q 64 250 64 673 q 0 501 -103 809 q -103 308 -308 476 q -205 168 -518 168 q -412 0 -647 -295 q -282 -356 -282 -1158 m 359 0 q 0 701 164 934 q 164 232 405 232 q 241 0 405 -233 q 164 -233 164 -933 q 0 -703 -164 -935 q -164 -231 -409 -231 q -241 0 -385 204 q -181 260 -181 962 Z M 859835 397141 l 0 336 l -1883 0 q -4 -126 41 -243 q 72 -192 230 -379 q 158 -187 458 -431 q 464 -381 628 -603 q 163 -222 163 -421 q 0 -208 -149 -351 q -149 -143 -388 -143 q -253 0 -404 152 q -152 152 -154 420 l -359 -37 q 37 -402 278 -613 q 241 -211 647 -211 q 410 0 649 227 q 239 227 239 564 q 0 171 -70 336 q -70 165 -232 348 q -162 183 -539 501 q -315 264 -404 359 q -89 94 -148 189 l 1397 0 Z" class="C2" /><path d="M 737352 292076 l 5697 0 l 0 -5697 l -5697 0 l 0 5697" class="C1" /><path d="M 740877 280112 l 0 -2513 l -939 0 l 0 -336 l 2258 0 l 0 336 l -942 0 l 0 2513 l -377 0 Z M 744616 279113 l 377 95 q -119 464 -427 708 q -308 244 -753 244 q -461 0 -749 -188 q -289 -188 -439 -543 q -151 -356 -151 -764 q 0 -445 170 -776 q 170 -331 484 -503 q 314 -172 691 -172 q 427 0 719 218 q 291 218 406 612 l -371 87 q -99 -311 -288 -453 q -188 -142 -474 -142 q -328 0 -549 157 q -221 157 -310 423 q -89 265 -89 547 q 0 363 106 634 q 106 271 329 405 q 223 134 484 134 q 317 0 536 -183 q 220 -183 297 -542 Z M 746271 280112 l -1104 -2849 l 408 0 l 740 2069 q 89 249 150 466 q 66 -233 154 -466 l 769 -2069 l 385 0 l -1115 2849 l -387 0 Z" class="C2" /><path d="M 741202 282872 l 336 -31 q 43 237 163 344 q 120 107 309 107 q 161 0 283 -74 q 121 -74 199 -197 q 78 -123 130 -333 q 52 -210 52 -427 q 0 -23 -2 -70 q -105 167 -287 271 q -182 104 -393 104 q -354 0 -598 -256 q -245 -256 -245 -676 q 0 -433 256 -698 q 256 -264 640 -264 q 278 0 508 150 q 230 150 350 427 q 120 277 120 802 q 0 546 -119 870 q -119 324 -353 493 q -234 169 -549 169 q -334 0 -546 -186 q -212 -186 -255 -522 m 1432 -1257 q 0 -301 -160 -478 q -160 -177 -386 -177 q -233 0 -406 190 q -173 190 -173 494 q 0 272 164 442 q 164 170 405 170 q 243 0 399 -170 q 156 -170 156 -471 Z M 743363 282125 q 0 -505 104 -813 q 104 -308 309 -475 q 205 -167 516 -167 q 229 0 402 92 q 173 92 286 266 q 113 174 177 424 q 64 250 64 673 q 0 501 -103 809 q -103 308 -308 476 q -205 168 -518 168 q -412 0 -647 -295 q -282 -356 -282 -1158 m 359 0 q 0 701 164 934 q 164 232 405 232 q 241 0 405 -233 q 164 -233 164 -933 q 0 -703 -164 -935 q -164 -231 -409 -231 q -241 0 -385 204 q -181 260 -181 962 Z M 746894 283530 l -350 0 l 0 -2229 q -126 120 -331 241 q -205 120 -368 181 l 0 -338 q 293 -138 513 -334 q 220 -196 311 -381 l 225 0 l 0 2860 Z" class="C2" /><path d="M 851299 292076 l 5697 0 l 0 -5697 l -5697 0 l 0 5697" class="C1" /><path d="M 853037 280112 l 0 -2513 l -939 0 l 0 -336 l 2258 0 l 0 336 l -942 0 l 0 2513 l -377 0 Z M 856776 279113 l 377 95 q -119 464 -427 708 q -308 244 -753 244 q -461 0 -749 -188 q -289 -188 -439 -543 q -151 -356 -151 -764 q 0 -445 170 -776 q 170 -331 484 -503 q 314 -172 691 -172 q 427 0 719 218 q 291 218 406 612 l -371 87 q -99 -311 -288 -453 q -188 -142 -474 -142 q -328 0 -549 157 q -221 157 -310 423 q -89 265 -89 547 q 0 363 106 634 q 106 271 329 405 q 223 134 484 134 q 317 0 536 -183 q 220 -183 297 -542 Z M 858431 280112 l -1104 -2849 l 408 0 l 740 2069 q 89 249 150 466 q 66 -233 154 -466 l 769 -2069 l 385 0 l -1115 2849 l -387 0 Z" class="C2" /><path d="M 853362 282872 l 336 -31 q 43 237 163 344 q 120 107 309 107 q 161 0 283 -74 q 121 -74 199 -197 q 78 -123 130 -333 q 52 -210 52 -427 q 0 -23 -2 -70 q -105 167 -287 271 q -182 104 -393 104 q -354 0 -598 -256 q -245 -256 -245 -676 q 0 -433 256 -698 q 256 -264 640 -264 q 278 0 508 150 q 230 150 350 427 q 120 277 120 802 q 0 546 -119 870 q -119 324 -353 493 q -234 169 -549 169 q -334 0 -546 -186 q -212 -186 -255 -522 m 1432 -1257 q 0 -301 -160 -478 q -160 -177 -386 -177 q -233 0 -406 190 q -173 190 -173 494 q 0 272 164 442 q 164 170 405 170 q 243 0 399 -170 q 156 -170 156 -471 Z M 855523 282125 q 0 -505 104 -813 q 104 -308 309 -475 q 205 -167 516 -167 q 229 0 402 92 q 173 92 286 266 q 113 174 177 424 q 64 250 64 673 q 0 501 -103 809 q -103 308 -308 476 q -205 168 -518 168 q -412 0 -647 -295 q -282 -356 -282 -1158 m 359 0 q 0 701 164 934 q 164 232 405 232 q 241 0 405 -233 q 164 -233 164 -933 q 0 -703 -164 -935 q -164 -231 -409 -231 q -241 0 -385 204 q -181 260 -181 962 Z M 859574 283194 l 0 336 l -1883 0 q -4 -126 41 -243 q 72 -192 230 -379 q 158 -187 458 -431 q 464 -381 628 -603 q 163 -222 163 -421 q 0 -208 -149 -351 q -149 -143 -388 -143 q -253 0 -404 152 q -152 152 -154 420 l -359 -37 q 37 -402 278 -613 q 241 -211 647 -211 q 410 0 649 227 q 239 227 239 564 q 0 171 -70 336 q -70 165 -232 348 q -162 183 -539 501 q -315 264 -404 359 q -89 94 -148 189 l 1397 0 Z" class="C2" /><path d="M 53670 64182 l 5697 0 l 0 -5697 l -5697 0 l 0 5697" class="C1" /><path d="M 56826 52218 l 0 -2849 l 981 0 q 332 0 507 41 q 245 56 418 204 q 225 190 337 487 q 112 296 112 677 q 0 325 -76 575 q -76 251 -194 415 q -119 164 -259 258 q -141 94 -340 143 q -199 49 -458 49 l -1028 0 m 377 -336 l 608 0 q 282 0 442 -52 q 160 -52 256 -148 q 134 -134 209 -360 q 75 -226 75 -549 q 0 -447 -147 -687 q -147 -240 -357 -322 q -152 -58 -488 -58 l -598 0 l 0 2176 Z M 60514 52218 l -1104 -2849 l 408 0 l 740 2069 q 89 249 150 466 q 66 -233 154 -466 l 769 -2069 l 385 0 l -1115 2849 l -387 0 Z M 62212 50813 q 0 -505 104 -813 q 104 -308 309 -475 q 205 -167 516 -167 q 229 0 402 92 q 173 92 286 266 q 113 174 177 424 q 64 250 64 673 q 0 501 -103 809 q -103 308 -308 476 q -205 168 -518 168 q -412 0 -647 -295 q -282 -356 -282 -1158 m 359 0 q 0 701 164 934 q 164 232 405 232 q 241 0 405 -233 q 164 -233 164 -933 q 0 -703 -164 -935 q -164 -231 -409 -231 q -241 0 -385 204 q -181 260 -181 962 Z M 64426 50813 q 0 -505 104 -813 q 104 -308 309 -475 q 205 -167 516 -167 q 229 0 402 92 q 173 92 286 266 q 113 174 177 424 q 64 250 64 673 q 0 501 -103 809 q -103 308 -308 476 q -205 168 -518 168 q -412 0 -647 -295 q -282 -356 -282 -1158 m 359 0 q 0 701 164 934 q 164 232 405 232 q 241 0 405 -233 q 164 -233 164 -933 q 0 -703 -164 -935 q -164 -231 -409 -231 q -241 0 -385 204 q -181 260 -181 962 Z M 67956 52218 l -350 0 l 0 -2229 q -126 120 -331 241 q -205 120 -368 181 l 0 -338 q 293 -138 513 -334 q 220 -196 311 -381 l 225 0 l 0 2860 Z" class="C2" /><path d="M 512614 52218 l 0 -2849 l 981 0 q 332 0 507 41 q 245 56 418 204 q 225 190 337 487 q 112 296 112 677 q 0 325 -76 575 q -76 251 -194 415 q -119 164 -259 258 q -141 94 -340 143 q -199 49 -458 49 l -1028 0 m 377 -336 l 608 0 q 282 0 442 -52 q 160 -52 256 -148 q 134 -134 209 -360 q 75 -226 75 -549 q 0 -447 -147 -687 q -147 -240 -357 -322 q -152 -58 -488 -58 l -598 0 l 0 2176 Z M 516302 52218 l -1104 -2849 l 408 0 l 740 2069 q 89 249 150 466 q 66 -233 154 -466 l 769 -2069 l 385 0 l -1115 2849 l -387 0 Z M 518000 50813 q 0 -505 104 -813 q 104 -308 309 -475 q 205 -167 516 -167 q 229 0 402 92 q 173 92 286 266 q 113 174 177 424 q 64 250 64 673 q 0 501 -103 809 q -103 308 -308 476 q -205 168 -518 168 q -412 0 -647 -295 q -282 -356 -282 -1158 m 359 0 q 0 701 164 934 q 164 232 405 232 q 241 0 405 -233 q 164 -233 164 -933 q 0 -703 -164 -935 q -164 -231 -409 -231 q -241 0 -385 204 q -181 260 -181 962 Z M 520214 50813 q 0 -505 104 -813 q 104 -308 309 -475 q 205 -167 516 -167 q 229 0 402 92 q 173 92 286 266 q 113 174 177 424 q 64 250 64 673 q 0 501 -103 809 q -103 308 -308 476 q -205 168 -518 168 q -412 0 -647 -295 q -282 -356 -282 -1158 m 359 0 q 0 701 164 934 q 164 232 405 232 q 241 0 405 -233 q 164 -233 164 -933 q 0 -703 -164 -935 q -164 -231 -409 -231 q -241 0 -385 204 q -181 260 -181 962 Z M 523744 52218 l -350 0 l 0 -2229 q -126 120 -331 241 q -205 120 -368 181 l 0 -338 q 293 -138 513 -334 q 220 -196 311 -381 l 225 0 l 0 2860 Z" class="C5" /><path d="M 167617 64182 l 5697 0 l 0 -5697 l -5697 0 l 0 5697" class="C3" /><path d="M 170773 52218 l 0 -2849 l 981 0 q 332 0 507 41 q 245 56 418 204 q 225 190 337 487 q 112 296 112 677 q 0 325 -76 575 q -76 251 -194 415 q -119 164 -259 258 q -141 94 -340 143 q -199 49 -458 49 l -1028 0 m 377 -336 l 608 0 q 282 0 442 -52 q 160 -52 256 -148 q 134 -134 209 -360 q 75 -226 75 -549 q 0 -447 -147 -687 q -147 -240 -357 -322 q -152 -58 -488 -58 l -598 0 l 0 2176 Z M 174461 52218 l -1104 -2849 l 408 0 l 740 2069 q 89 249 150 466 q 66 -233 154 -466 l 769 -2069 l 385 0 l -1115 2849 l -387 0 Z M 176159 50813 q 0 -505 104 -813 q 104 -308 309 -475 q 205 -167 516 -167 q 229 0 402 92 q 173 92 286 266 q 113 174 177 424 q 64 250 64 673 q 0 501 -103 809 q -103 308 -308 476 q -205 168 -518 168 q -412 0 -647 -295 q -282 -356 -282 -1158 m 359 0 q 0 701 164 934 q 164 232 405 232 q 241 0 405 -233 q 164 -233 164 -933 q 0 -703 -164 -935 q -164 -231 -409 -231 q -241 0 -385 204 q -181 260 -181 962 Z M 178373 50813 q 0 -505 104 -813 q 104 -308 309 -475 q 205 -167 516 -167 q 229 0 402 92 q 173 92 286 266 q 113 174 177 424 q 64 250 64 673 q 0 501 -103 809 q -103 308 -308 476 q -205 168 -518 168 q -412 0 -647 -295 q -282 -356 -282 -1158 m 359 0 q 0 701 164 934 q 164 232 405 232 q 241 0 405 -233 q 164 -233 164 -933 q 0 -703 -164 -935 q -164 -231 -409 -231 q -241 0 -385 204 q -181 260 -181 962 Z M 182424 51882 l 0 336 l -1883 0 q -4 -126 41 -243 q 72 -192 230 -379 q 158 -187 458 -431 q 464 -381 628 -603 q 163 -222 163 -421 q 0 -208 -149 -351 q -149 -143 -388 -143 q -253 0 -404 152 q -152 152 -154 420 l -359 -37 q 37 -402 278 -613 q 241 -211 647 -211 q 410 0 649 227 q 239 227 239 564 q 0 171 -70 336 q -70 165 -232 348 q -162 183 -539 501 q -315 264 -404 359 q -89 94 -148 189 l 1397 0 Z" class="C2" /><path d="M 626561 52218 l 0 -2849 l 981 0 q 332 0 507 41 q 245 56 418 204 q 225 190 337 487 q 112 296 112 677 q 0 325 -76 575 q -76 251 -194 415 q -119 164 -259 258 q -141 94 -340 143 q -199 49 -458 49 l -1028 0 m 377 -336 l 608 0 q 282 0 442 -52 q 160 -52 256 -148 q 134 -134 209 -360 q 75 -226 75 -549 q 0 -447 -147 -687 q -147 -240 -357 -322 q -152 -58 -488 -58 l -598 0 l 0 2176 Z M 630249 52218 l -1104 -2849 l 408 0 l 740 2069 q 89 249 150 466 q 66 -233 154 -466 l 769 -2069 l 385 0 l -1115 2849 l -387 0 Z M 631948 50813 q 0 -505 104 -813 q 104 -308 309 -475 q 205 -167 516 -167 q 229 0 402 92 q 173 92 286 266 q 113 174 177 424 q 64 250 64 673 q 0 501 -103 809 q -103 308 -308 476 q -205 168 -518 168 q -412 0 -647 -295 q -282 -356 -282 -1158 m 359 0 q 0 701 164 934 q 164 232 405 232 q 241 0 405 -233 q 164 -233 164 -933 q 0 -703 -164 -935 q -164 -231 -409 -231 q -241 0 -385 204 q -181 260 -181 962 Z M 634161 50813 q 0 -505 104 -813 q 104 -308 309 -475 q 205 -167 516 -167 q 229 0 402 92 q 173 92 286 266 q 113 174 177 424 q 64 250 64 673 q 0 501 -103 809 q -103 308 -308 476 q -205 168 -518 168 q -412 0 -647 -295 q -282 -356 -282 -1158 m 359 0 q 0 701 164 934 q 164 232 405 232 q 241 0 405 -233 q 164 -233 164 -933 q 0 -703 -164 -935 q -164 -231 -409 -231 q -241 0 -385 204 q -181 260 -181 962 Z M 638212 51882 l 0 336 l -1883 0 q -4 -126 41 -243 q 72 -192 230 -379 q 158 -187 458 -431 q 464 -381 628 -603 q 163 -222 163 -421 q 0 -208 -149 -351 q -149 -143 -388 -143 q -253 0 -404 152 q -152 152 -154 420 l -359 -37 q 37 -402 278 -613 q 241 -211 647 -211 q 410 0 649 227 q 239 227 239 564 q 0 171 -70 336 q -70 165 -232 348 q -162 183 -539 501 q -315 264 -404 359 q -89 94 -148 189 l 1397 0 Z" class="C5" /><path d="M 281564 64182 l 5697 0 l 0 -5697 l -5697 0 l 0 5697" class="C4" /><path d="M 284720 52218 l 0 -2849 l 981 0 q 332 0 507 41 q 245 56 418 204 q 225 190 337 487 q 112 296 112 677 q 0 325 -76 575 q -76 251 -194 415 q -119 164 -259 258 q -141 94 -340 143 q -199 49 -458 49 l -1028 0 m 377 -336 l 608 0 q 282 0 442 -52 q 160 -52 256 -148 q 134 -134 209 -360 q 75 -226 75 -549 q 0 -447 -147 -687 q -147 -240 -357 -322 q -152 -58 -488 -58 l -598 0 l 0 2176 Z M 288408 52218 l -1104 -2849 l 408 0 l 740 2069 q 89 249 150 466 q 66 -233 154 -466 l 769 -2069 l 385 0 l -1115 2849 l -387 0 Z M 290106 50813 q 0 -505 104 -813 q 104 -308 309 -475 q 205 -167 516 -167 q 229 0 402 92 q 173 92 286 266 q 113 174 177 424 q 64 250 64 673 q 0 501 -103 809 q -103 308 -308 476 q -205 168 -518 168 q -412 0 -647 -295 q -282 -356 -282 -1158 m 359 0 q 0 701 164 934 q 164 232 405 232 q 241 0 405 -233 q 164 -233 164 -933 q 0 -703 -164 -935 q -164 -231 -409 -231 q -241 0 -385 204 q -181 260 -181 962 Z M 292320 50813 q 0 -505 104 -813 q 104 -308 309 -475 q 205 -167 516 -167 q 229 0 402 92 q 173 92 286 266 q 113 174 177 424 q 64 250 64 673 q 0 501 -103 809 q -103 308 -308 476 q -205 168 -518 168 q -412 0 -647 -295 q -282 -356 -282 -1158 m 359 0 q 0 701 164 934 q 164 232 405 232 q 241 0 405 -233 q 164 -233 164 -933 q 0 -703 -164 -935 q -164 -231 -409 -231 q -241 0 -385 204 q -181 260 -181 962 Z M 294535 51466 l 350 -47 q 60 297 205 428 q 145 131 353 131 q 247 0 417 -171 q 170 -171 170 -424 q 0 -241 -157 -397 q -157 -156 -400 -156 q -99 0 -247 39 l 39 -307 q 35 4 56 4 q 223 0 402 -117 q 179 -117 179 -359 q 0 -192 -130 -319 q -130 -126 -336 -126 q -204 0 -340 128 q -136 128 -175 385 l -350 -62 q 64 -352 291 -545 q 227 -193 565 -193 q 233 0 429 100 q 196 100 300 273 q 104 173 104 367 q 0 185 -99 336 q -99 152 -293 241 q 253 58 393 242 q 140 184 140 460 q 0 373 -272 632 q -272 259 -688 259 q -375 0 -623 -223 q -248 -223 -283 -579 Z" class="C2" /><path d="M 740508 52218 l 0 -2849 l 981 0 q 332 0 507 41 q 245 56 418 204 q 225 190 337 487 q 112 296 112 677 q 0 325 -76 575 q -76 251 -194 415 q -119 164 -259 258 q -141 94 -340 143 q -199 49 -458 49 l -1028 0 m 377 -336 l 608 0 q 282 0 442 -52 q 160 -52 256 -148 q 134 -134 209 -360 q 75 -226 75 -549 q 0 -447 -147 -687 q -147 -240 -357 -322 q -152 -58 -488 -58 l -598 0 l 0 2176 Z M 744196 52218 l -1104 -2849 l 408 0 l 740 2069 q 89 249 150 466 q 66 -233 154 -466 l 769 -2069 l 385 0 l -1115 2849 l -387 0 Z M 745895 50813 q 0 -505 104 -813 q 104 -308 309 -475 q 205 -167 516 -167 q 229 0 402 92 q 173 92 286 266 q 113 174 177 424 q 64 250 64 673 q 0 501 -103 809 q -103 308 -308 476 q -205 168 -518 168 q -412 0 -647 -295 q -282 -356 -282 -1158 m 359 0 q 0 701 164 934 q 164 232 405 232 q 241 0 405 -233 q 164 -233 164 -933 q 0 -703 -164 -935 q -164 -231 -409 -231 q -241 0 -385 204 q -181 260 -181 962 Z M 748108 50813 q 0 -505 104 -813 q 104 -308 309 -475 q 205 -167 516 -167 q 229 0 402 92 q 173 92 286 266 q 113 174 177 424 q 64 250 64 673 q 0 501 -103 809 q -103 308 -308 476 q -205 168 -518 168 q -412 0 -647 -295 q -282 -356 -282 -1158 m 359 0 q 0 701 164 934 q 164 232 405 232 q 241 0 405 -233 q 164 -233 164 -933 q 0 -703 -164 -935 q -164 -231 -409 -231 q -241 0 -385 204 q -181 260 -181 962 Z M 750323 51466 l 350 -47 q 60 297 205 428 q 145 131 353 131 q 247 0 417 -171 q 170 -171 170 -424 q 0 -241 -157 -397 q -157 -156 -400 -156 q -99 0 -247 39 l 39 -307 q 35 4 56 4 q 223 0 402 -117 q 179 -117 179 -359 q 0 -192 -130 -319 q -130 -126 -336 -126 q -204 0 -340 128 q -136 128 -175 385 l -350 -62 q 64 -352 291 -545 q 227 -193 565 -193 q 233 0 429 100 q 196 100 300 273 q 104 173 104 367 q 0 185 -99 336 q -99 152 -293 241 q 253 58 393 242 q 140 184 140 460 q 0 373 -272 632 q -272 259 -688 259 q -375 0 -623 -223 q -248 -223 -283 -579 Z" class="C5" /><path d="M -0 460148 l 0 -4273 l 580 0 l 2244 3355 l 0 -3355 l 542 0 l 0 4273 l -580 0 l -2244 -3358 l 0 3358 l -542 0 Z M 4145 458067 q 0 -1064 571 -1666 q 571 -602 1475 -602 q 592 0 1067 283 q 475 283 724 788 q 249 506 249 1147 q 0 650 -262 1163 q -262 513 -743 777 q -481 264 -1038 264 q -603 0 -1078 -291 q -475 -291 -720 -796 q -245 -504 -245 -1067 m 583 9 q 0 772 415 1217 q 415 444 1042 444 q 638 0 1051 -449 q 412 -449 412 -1274 q 0 -522 -176 -911 q -176 -389 -516 -603 q -340 -214 -762 -214 q -600 0 -1033 412 q -433 412 -433 1377 Z M 8969 460148 l 0 -4273 l 1895 0 q 571 0 869 115 q 297 115 475 407 q 178 291 178 644 q 0 455 -294 767 q -294 312 -909 396 q 224 108 341 213 q 248 227 469 568 l 743 1163 l -711 0 l -565 -889 q -248 -385 -408 -589 q -160 -204 -287 -286 q -127 -82 -258 -114 q -96 -20 -315 -20 l -656 0 l 0 1897 l -565 0 m 565 -2387 l 1215 0 q 388 0 606 -80 q 219 -80 332 -256 q 114 -176 114 -383 q 0 -303 -220 -498 q -220 -195 -695 -195 l -1352 0 l 0 1414 Z M 14358 460148 l 0 -3769 l -1408 0 l 0 -504 l 3387 0 l 0 504 l -1414 0 l 0 3769 l -565 0 Z M 16935 460148 l 0 -4273 l 565 0 l 0 1755 l 2221 0 l 0 -1755 l 565 0 l 0 4273 l -565 0 l 0 -2014 l -2221 0 l 0 2014 l -565 0 Z" class="C5" /><path d="M 15 482938 l 0 -4273 l 1895 0 q 571 0 869 115 q 297 115 475 407 q 178 291 178 644 q 0 455 -294 767 q -294 312 -909 396 q 224 108 341 213 q 248 227 469 568 l 743 1163 l -711 0 l -565 -889 q -248 -385 -408 -589 q -160 -204 -287 -286 q -127 -82 -258 -114 q -96 -20 -315 -20 l -656 0 l 0 1897 l -565 0 m 565 -2387 l 1215 0 q 388 0 606 -80 q 219 -80 332 -256 q 114 -176 114 -383 q 0 -303 -220 -498 q -220 -195 -695 -195 l -1352 0 l 0 1414 Z M 4328 482938 l 0 -4273 l 3090 0 l 0 504 l -2524 0 l 0 1309 l 2364 0 l 0 501 l -2364 0 l 0 1454 l 2623 0 l 0 504 l -3189 0 Z M 9520 482938 l -1656 -4273 l 612 0 l 1111 3104 q 134 373 224 700 q 99 -350 230 -700 l 1154 -3104 l 577 0 l -1673 4273 l -580 0 Z M 13469 482938 l 1641 -4273 l 609 0 l 1749 4273 l -644 0 l -498 -1294 l -1787 0 l -469 1294 l -600 0 m 1233 -1755 l 1449 0 l -446 -1183 q -204 -539 -303 -886 q -82 411 -230 816 l -469 1253 Z" class="C5" /><path d="M 6 505727 l 0 -4273 l 1472 0 q 498 0 761 61 q 367 85 627 306 q 338 286 506 730 q 168 444 168 1016 q 0 487 -114 863 q -114 376 -291 622 q -178 246 -389 388 q -211 141 -510 214 q -299 73 -686 73 l -1542 0 m 565 -504 l 912 0 q 423 0 663 -79 q 240 -79 383 -222 q 201 -201 313 -541 q 112 -340 112 -823 q 0 -670 -220 -1030 q -220 -360 -535 -482 q -227 -87 -732 -87 l -898 0 l 0 3265 Z M 4145 503646 q 0 -1064 571 -1666 q 571 -602 1475 -602 q 592 0 1067 283 q 475 283 724 788 q 249 506 249 1147 q 0 650 -262 1163 q -262 513 -743 777 q -481 264 -1038 264 q -603 0 -1078 -291 q -475 -291 -720 -796 q -245 -504 -245 -1067 m 583 9 q 0 772 415 1217 q 415 444 1042 444 q 638 0 1051 -449 q 412 -449 412 -1274 q 0 -522 -176 -911 q -176 -389 -516 -603 q -340 -214 -762 -214 q -600 0 -1033 412 q -433 412 -433 1377 Z M 10613 505727 l 0 -4273 l 580 0 l 2244 3355 l 0 -3355 l 542 0 l 0 4273 l -580 0 l -2244 -3358 l 0 3358 l -542 0 Z M 14757 503646 q 0 -1064 571 -1666 q 571 -602 1475 -602 q 592 0 1067 283 q 475 283 724 788 q 249 506 249 1147 q 0 650 -262 1163 q -262 513 -743 777 q -481 264 -1038 264 q -603 0 -1078 -291 q -475 -291 -720 -796 q -245 -504 -245 -1067 m 583 9 q 0 772 415 1217 q 415 444 1042 444 q 638 0 1051 -449 q 412 -449 412 -1274 q 0 -522 -176 -911 q -176 -389 -516 -603 q -340 -214 -762 -214 q -600 0 -1033 412 q -433 412 -433 1377 Z M 20660 505727 l 0 -3769 l -1408 0 l 0 -504 l 3387 0 l 0 504 l -1414 0 l 0 3769 l -565 0 Z M 24685 504354 l 533 -47 q 38 321 176 526 q 138 205 430 332 q 291 127 656 127 q 324 0 571 -96 q 248 -96 369 -264 q 121 -168 121 -366 q 0 -201 -117 -351 q -117 -150 -385 -252 q -172 -67 -761 -208 q -589 -141 -825 -267 q -306 -160 -456 -398 q -150 -238 -150 -532 q 0 -324 184 -605 q 184 -281 536 -427 q 353 -146 784 -146 q 475 0 838 153 q 363 153 558 450 q 195 297 210 673 l -542 41 q -44 -405 -296 -612 q -252 -207 -745 -207 q -513 0 -748 188 q -235 188 -235 453 q 0 230 166 379 q 163 149 853 305 q 689 156 946 273 q 373 172 551 436 q 178 264 178 608 q 0 341 -195 643 q -195 302 -561 469 q -366 168 -823 168 q -580 0 -972 -169 q -392 -169 -615 -509 q -223 -340 -235 -768 Z M 31908 504229 l 565 143 q -178 697 -640 1062 q -462 366 -1129 366 q -691 0 -1124 -281 q -433 -281 -659 -815 q -226 -533 -226 -1145 q 0 -667 255 -1164 q 255 -497 726 -755 q 471 -258 1036 -258 q 641 0 1078 326 q 437 326 609 918 l -557 131 q -149 -466 -431 -679 q -283 -213 -711 -213 q -493 0 -823 236 q -331 236 -465 634 q -134 398 -134 821 q 0 545 159 952 q 159 407 494 608 q 335 201 726 201 q 475 0 804 -274 q 329 -274 446 -813 Z M 32701 505727 l 1641 -4273 l 609 0 l 1749 4273 l -644 0 l -498 -1294 l -1787 0 l -469 1294 l -600 0 m 1233 -1755 l 1449 0 l -446 -1183 q -204 -539 -303 -886 q -82 411 -230 816 l -469 1253 Z M 37128 505727 l 0 -4273 l 565 0 l 0 3769 l 2104 0 l 0 504 l -2670 0 Z M 40483 505727 l 0 -4273 l 3090 0 l 0 504 l -2524 0 l 0 1309 l 2364 0 l 0 501 l -2364 0 l 0 1454 l 2623 0 l 0 504 l -3189 0 Z" class="C5" /><path d="M 968363 504354 l 533 -47 q 38 321 176 526 q 138 205 430 332 q 291 127 656 127 q 324 0 571 -96 q 248 -96 369 -264 q 121 -168 121 -366 q 0 -201 -117 -351 q -117 -150 -385 -252 q -172 -67 -761 -208 q -589 -141 -825 -267 q -306 -160 -456 -398 q -150 -238 -150 -532 q 0 -324 184 -605 q 184 -281 536 -427 q 353 -146 784 -146 q 475 0 838 153 q 363 153 558 450 q 195 297 210 673 l -542 41 q -44 -405 -296 -612 q -252 -207 -745 -207 q -513 0 -748 188 q -235 188 -235 453 q 0 230 166 379 q 163 149 853 305 q 689 156 946 273 q 373 172 551 436 q 178 264 178 608 q 0 341 -195 643 q -195 302 -561 469 q -366 168 -823 168 q -580 0 -972 -169 q -392 -169 -615 -509 q -223 -340 -235 -768 Z M 972470 505727 l 0 -4273 l 525 0 l 0 1533 q 367 -426 927 -426 q 344 0 598 136 q 254 136 363 375 q 109 239 109 694 l 0 1962 l -525 0 l 0 -1962 q 0 -393 -171 -573 q -171 -179 -482 -179 q -233 0 -439 121 q -205 121 -293 328 q -87 207 -87 571 l 0 1693 l -525 0 Z M 977909 504730 l 542 67 q -128 475 -475 737 q -347 262 -886 262 q -679 0 -1077 -418 q -398 -418 -398 -1173 q 0 -781 402 -1213 q 402 -431 1043 -431 q 621 0 1014 423 q 393 423 393 1189 q 0 47 -3 140 l -2308 0 q 29 510 289 781 q 259 271 647 271 q 289 0 493 -152 q 204 -152 324 -484 m -1723 -848 l 1728 0 q -35 -391 -198 -586 q -251 -303 -650 -303 q -361 0 -608 242 q -246 242 -273 647 Z M 981229 504730 l 542 67 q -128 475 -475 737 q -347 262 -886 262 q -679 0 -1077 -418 q -398 -418 -398 -1173 q 0 -781 402 -1213 q 402 -431 1043 -431 q 621 0 1014 423 q 393 423 393 1189 q 0 47 -3 140 l -2308 0 q 29 510 289 781 q 259 271 647 271 q 289 0 493 -152 q 204 -152 324 -484 m -1723 -848 l 1728 0 q -35 -391 -198 -586 q -251 -303 -650 -303 q -361 0 -608 242 q -246 242 -273 647 Z M 983575 505258 l 76 463 q -222 47 -396 47 q -286 0 -443 -90 q -157 -90 -222 -238 q -64 -147 -64 -619 l 0 -1781 l -385 0 l 0 -408 l 385 0 l 0 -767 l 522 -315 l 0 1081 l 528 0 l 0 408 l -528 0 l 0 1810 q 0 224 28 289 q 28 64 90 102 q 63 38 179 38 q 87 0 230 -20 Z M 987577 505727 l -525 0 l 0 -3343 q -189 181 -497 361 q -308 181 -552 271 l 0 -507 q 440 -207 769 -501 q 329 -294 466 -571 l 338 0 l 0 4291 Z M 990530 504179 q 0 -860 478 -1274 q 399 -344 974 -344 q 638 0 1043 418 q 405 418 405 1156 q 0 598 -179 940 q -179 342 -522 532 q -342 189 -748 189 q -650 0 -1051 -417 q -401 -417 -401 -1201 m 539 0 q 0 595 259 890 q 259 296 653 296 q 391 0 650 -297 q 259 -297 259 -906 q 0 -574 -261 -870 q -261 -296 -649 -296 q -393 0 -653 294 q -259 294 -259 889 Z M 994171 505727 l 0 -2687 l -463 0 l 0 -408 l 463 0 l 0 -329 q 0 -312 55 -463 q 76 -204 267 -331 q 191 -127 535 -127 q 222 0 490 52 l -79 458 q -163 -29 -309 -29 q -239 0 -338 102 q -99 102 -99 382 l 0 286 l 603 0 l 0 408 l -603 0 l 0 2687 l -522 0 Z M 998898 505727 l 0 -1023 l -1854 0 l 0 -481 l 1950 -2769 l 428 0 l 0 2769 l 577 0 l 0 481 l -577 0 l 0 1023 l -525 0 m 0 -1504 l 0 -1927 l -1338 1927 l 1338 0 Z" class="C5" /><path d="M 455794 4360 l 0 -4273 l 1612 0 q 426 0 650 41 q 315 52 528 200 q 213 147 342 412 q 130 265 130 583 q 0 545 -347 923 q -347 377 -1253 377 l -1096 0 l 0 1737 l -565 0 m 565 -2241 l 1105 0 q 548 0 778 -204 q 230 -204 230 -574 q 0 -268 -136 -459 q -136 -191 -357 -252 q -143 -38 -528 -38 l -1093 0 l 0 1527 Z M 462151 3856 q -259 289 -565 433 q -306 144 -662 144 q -656 0 -1041 -443 q -312 -361 -312 -807 q 0 -396 255 -716 q 255 -319 762 -561 q -289 -332 -385 -539 q -96 -207 -96 -399 q 0 -385 302 -669 q 302 -284 759 -284 q 437 0 716 268 q 278 268 278 644 q 0 609 -807 1041 l 767 976 q 131 -256 204 -595 l 545 117 q -140 560 -379 921 q 294 391 667 656 l -353 417 q -318 -204 -656 -603 m -1067 -2227 q 341 -201 442 -353 q 101 -152 101 -335 q 0 -219 -138 -357 q -138 -138 -345 -138 q -213 0 -354 137 q -141 137 -141 335 q 0 99 51 208 q 51 109 153 232 l 233 271 m 737 1813 l -962 -1192 q -426 254 -574 471 q -149 217 -149 430 q 0 259 207 539 q 207 280 586 280 q 236 0 488 -147 q 252 -147 404 -380 Z M 463853 4360 l 0 -4273 l 565 0 l 0 4273 l -565 0 Z M 465416 4360 l 0 -4273 l 1472 0 q 498 0 761 61 q 367 85 627 306 q 338 286 506 730 q 168 444 168 1016 q 0 487 -114 863 q -114 376 -291 622 q -178 246 -389 388 q -211 141 -510 214 q -299 73 -686 73 l -1542 0 m 565 -504 l 912 0 q 423 0 663 -79 q 240 -79 383 -222 q 201 -201 313 -541 q 112 -340 112 -823 q 0 -670 -220 -1030 q -220 -360 -535 -482 q -227 -87 -732 -87 l -898 0 l 0 3265 Z M 471114 3078 l 0 -528 l 1612 0 l 0 528 l -1612 0 Z M 474562 4360 l 1641 -4273 l 609 0 l 1749 4273 l -644 0 l -498 -1294 l -1787 0 l -469 1294 l -600 0 m 1233 -1755 l 1449 0 l -446 -1183 q -204 -539 -303 -886 q -82 411 -230 816 l -469 1253 Z M 479022 4360 l 0 -4273 l 1895 0 q 571 0 869 115 q 297 115 475 407 q 178 291 178 644 q 0 455 -294 767 q -294 312 -909 396 q 224 108 341 213 q 248 227 469 568 l 743 1163 l -711 0 l -565 -889 q -248 -385 -408 -589 q -160 -204 -287 -286 q -127 -82 -258 -114 q -96 -20 -315 -20 l -656 0 l 0 1897 l -565 0 m 565 -2387 l 1215 0 q 388 0 606 -80 q 219 -80 332 -256 q 114 -176 114 -383 q 0 -303 -220 -498 q -220 -195 -695 -195 l -1352 0 l 0 1414 Z M 483335 4360 l 0 -4273 l 3090 0 l 0 504 l -2524 0 l 0 1309 l 2364 0 l 0 501 l -2364 0 l 0 1454 l 2623 0 l 0 504 l -3189 0 Z M 486836 4360 l 1641 -4273 l 609 0 l 1749 4273 l -644 0 l -498 -1294 l -1787 0 l -469 1294 l -600 0 m 1233 -1755 l 1449 0 l -446 -1183 q -204 -539 -303 -886 q -82 411 -230 816 l -469 1253 Z M 492733 3241 l 551 -47 q 61 402 284 605 q 223 203 538 203 q 379 0 641 -286 q 262 -286 262 -758 q 0 -449 -252 -708 q -252 -259 -660 -259 q -254 0 -458 115 q -204 115 -321 299 l -493 -64 l 414 -2195 l 2125 0 l 0 501 l -1705 0 l -230 1148 q 385 -268 807 -268 q 560 0 944 388 q 385 388 385 997 q 0 580 -338 1003 q -411 519 -1122 519 q -583 0 -952 -326 q -369 -326 -421 -866 Z" class="C5" /><path d="M 170734 2987 l 533 -47 q 38 321 176 526 q 138 205 430 332 q 291 127 656 127 q 324 0 571 -96 q 248 -96 369 -264 q 121 -168 121 -366 q 0 -201 -117 -351 q -117 -150 -385 -252 q -172 -67 -761 -208 q -589 -141 -825 -267 q -306 -160 -456 -398 q -150 -238 -150 -532 q 0 -324 184 -605 q 184 -281 536 -427 q 353 -146 784 -146 q 475 0 838 153 q 363 153 558 450 q 195 297 210 673 l -542 41 q -44 -405 -296 -612 q -252 -207 -745 -207 q -513 0 -748 188 q -235 188 -235 453 q 0 230 166 379 q 163 149 853 305 q 689 156 946 273 q 373 172 551 436 q 178 264 178 608 q 0 341 -195 643 q -195 302 -561 469 q -366 168 -823 168 q -580 0 -972 -169 q -392 -169 -615 -509 q -223 -340 -235 -768 Z M 174920 4360 l 0 -4273 l 3090 0 l 0 504 l -2524 0 l 0 1309 l 2364 0 l 0 501 l -2364 0 l 0 1454 l 2623 0 l 0 504 l -3189 0 Z M 178901 4360 l 0 -4273 l 3090 0 l 0 504 l -2524 0 l 0 1309 l 2364 0 l 0 501 l -2364 0 l 0 1454 l 2623 0 l 0 504 l -3189 0 Z M 184530 4360 l 0 -4273 l 1472 0 q 498 0 761 61 q 367 85 627 306 q 338 286 506 730 q 168 444 168 1016 q 0 487 -114 863 q -114 376 -291 622 q -178 246 -389 388 q -211 141 -510 214 q -299 73 -686 73 l -1542 0 m 565 -504 l 912 0 q 423 0 663 -79 q 240 -79 383 -222 q 201 -201 313 -541 q 112 -340 112 -823 q 0 -670 -220 -1030 q -220 -360 -535 -482 q -227 -87 -732 -87 l -898 0 l 0 3265 Z M 189587 4360 l -1134 -4273 l 580 0 l 650 2801 q 105 440 181 874 q 163 -685 192 -790 l 813 -2886 l 682 0 l 612 2163 q 230 804 332 1513 q 82 -405 213 -930 l 670 -2746 l 568 0 l -1172 4273 l -545 0 l -901 -3256 q -114 -408 -134 -501 q -67 294 -125 501 l -906 3256 l -577 0 Z M 196474 2684 l 0 -501 l 1810 -3 l 0 1586 q -417 332 -860 500 q -443 168 -909 168 q -630 0 -1144 -270 q -514 -270 -777 -780 q -262 -510 -262 -1140 q 0 -624 261 -1164 q 261 -541 751 -803 q 490 -262 1128 -262 q 463 0 838 150 q 375 150 587 418 q 213 268 324 700 l -510 140 q -96 -326 -239 -513 q -143 -187 -408 -299 q -265 -112 -589 -112 q -388 0 -670 118 q -283 118 -456 310 q -173 192 -270 423 q -163 396 -163 860 q 0 571 197 956 q 197 385 573 571 q 376 187 799 187 q 367 0 717 -141 q 350 -141 530 -302 l 0 -796 l -1256 0 Z M 202540 4360 l -525 0 l 0 -3343 q -189 181 -497 361 q -308 181 -552 271 l 0 -507 q 440 -207 769 -501 q 329 -294 466 -571 l 338 0 l 0 4291 Z M 206641 3856 l 0 504 l -2824 0 q -6 -189 61 -364 q 108 -289 345 -568 q 238 -280 686 -647 q 697 -571 941 -905 q 245 -334 245 -631 q 0 -312 -223 -526 q -223 -214 -581 -214 q -379 0 -606 227 q -227 227 -230 630 l -539 -55 q 55 -603 417 -920 q 361 -316 971 -316 q 615 0 974 341 q 359 341 359 845 q 0 256 -105 504 q -105 248 -348 522 q -243 274 -809 752 q -472 396 -606 538 q -134 141 -222 284 l 2096 0 Z M 207206 3232 l 525 -70 q 90 446 308 643 q 217 197 529 197 q 370 0 625 -256 q 255 -256 255 -635 q 0 -361 -236 -596 q -236 -235 -600 -235 q -149 0 -370 58 l 58 -461 q 52 6 85 6 q 335 0 603 -175 q 268 -175 268 -539 q 0 -289 -195 -478 q -195 -189 -504 -189 q -306 0 -510 192 q -204 192 -262 577 l -525 -93 q 96 -528 437 -818 q 341 -290 848 -290 q 350 0 644 150 q 294 150 450 410 q 156 259 156 551 q 0 277 -149 504 q -149 227 -440 361 q 379 87 589 363 q 210 275 210 689 q 0 560 -408 949 q -408 389 -1032 389 q -563 0 -934 -335 q -372 -335 -424 -869 Z M 212205 4360 l 0 -1023 l -1854 0 l 0 -481 l 1950 -2769 l 428 0 l 0 2769 l 577 0 l 0 481 l -577 0 l 0 1023 l -525 0 m 0 -1504 l 0 -1927 l -1338 1927 l 1338 0 Z M 213843 3241 l 551 -47 q 61 402 284 605 q 223 203 538 203 q 379 0 641 -286 q 262 -286 262 -758 q 0 -449 -252 -708 q -252 -259 -660 -259 q -254 0 -458 115 q -204 115 -321 299 l -493 -64 l 414 -2195 l 2125 0 l 0 501 l -1705 0 l -230 1148 q 385 -268 807 -268 q 560 0 944 388 q 385 388 385 997 q 0 580 -338 1003 q -411 519 -1122 519 q -583 0 -952 -326 q -369 -326 -421 -866 Z" class="C5" /><path d="M 626811 4360 l 0 -4273 l 565 0 l 0 4273 l -565 0 Z M 628181 2987 l 533 -47 q 38 321 176 526 q 138 205 430 332 q 291 127 656 127 q 324 0 571 -96 q 248 -96 369 -264 q 121 -168 121 -366 q 0 -201 -117 -351 q -117 -150 -385 -252 q -172 -67 -761 -208 q -589 -141 -825 -267 q -306 -160 -456 -398 q -150 -238 -150 -532 q 0 -324 184 -605 q 184 -281 536 -427 q 353 -146 784 -146 q 475 0 838 153 q 363 153 558 450 q 195 297 210 673 l -542 41 q -44 -405 -296 -612 q -252 -207 -745 -207 q -513 0 -748 188 q -235 188 -235 453 q 0 230 166 379 q 163 149 853 305 q 689 156 946 273 q 373 172 551 436 q 178 264 178 608 q 0 341 -195 643 q -195 302 -561 469 q -366 168 -823 168 q -580 0 -972 -169 q -392 -169 -615 -509 q -223 -340 -235 -768 Z M 632162 2987 l 533 -47 q 38 321 176 526 q 138 205 430 332 q 291 127 656 127 q 324 0 571 -96 q 248 -96 369 -264 q 121 -168 121 -366 q 0 -201 -117 -351 q -117 -150 -385 -252 q -172 -67 -761 -208 q -589 -141 -825 -267 q -306 -160 -456 -398 q -150 -238 -150 -532 q 0 -324 184 -605 q 184 -281 536 -427 q 353 -146 784 -146 q 475 0 838 153 q 363 153 558 450 q 195 297 210 673 l -542 41 q -44 -405 -296 -612 q -252 -207 -745 -207 q -513 0 -748 188 q -235 188 -235 453 q 0 230 166 379 q 163 149 853 305 q 689 156 946 273 q 373 172 551 436 q 178 264 178 608 q 0 341 -195 643 q -195 302 -561 469 q -366 168 -823 168 q -580 0 -972 -169 q -392 -169 -615 -509 q -223 -340 -235 -768 Z M 639140 87 l 565 0 l 0 2469 q 0 644 -146 1023 q -146 379 -526 616 q -380 238 -998 238 q -600 0 -982 -207 q -382 -207 -545 -599 q -163 -392 -163 -1071 l 0 -2469 l 565 0 l 0 2466 q 0 557 103 821 q 103 264 356 407 q 252 143 616 143 q 624 0 889 -283 q 265 -283 265 -1087 l 0 -2466 Z M 640659 4360 l 0 -4273 l 3090 0 l 0 504 l -2524 0 l 0 1309 l 2364 0 l 0 501 l -2364 0 l 0 1454 l 2623 0 l 0 504 l -3189 0 Z M 644629 4360 l 0 -4273 l 1472 0 q 498 0 761 61 q 367 85 627 306 q 338 286 506 730 q 168 444 168 1016 q 0 487 -114 863 q -114 376 -291 622 q -178 246 -389 388 q -211 141 -510 214 q -299 73 -686 73 l -1542 0 m 565 -504 l 912 0 q 423 0 663 -79 q 240 -79 383 -222 q 201 -201 313 -541 q 112 -340 112 -823 q 0 -670 -220 -1030 q -220 -360 -535 -482 q -227 -87 -732 -87 l -898 0 l 0 3265 Z M 650627 4360 l 0 -4273 l 2883 0 l 0 504 l -2317 0 l 0 1323 l 2005 0 l 0 504 l -2005 0 l 0 1941 l -565 0 Z M 654072 2279 q 0 -1064 571 -1666 q 571 -602 1475 -602 q 592 0 1067 283 q 475 283 724 788 q 249 506 249 1147 q 0 650 -262 1163 q -262 513 -743 777 q -481 264 -1038 264 q -603 0 -1078 -291 q -475 -291 -720 -796 q -245 -504 -245 -1067 m 583 9 q 0 772 415 1217 q 415 444 1042 444 q 638 0 1051 -449 q 412 -449 412 -1274 q 0 -522 -176 -911 q -176 -389 -516 -603 q -340 -214 -762 -214 q -600 0 -1033 412 q -433 412 -433 1377 Z M 658896 4360 l 0 -4273 l 1895 0 q 571 0 869 115 q 297 115 475 407 q 178 291 178 644 q 0 455 -294 767 q -294 312 -909 396 q 224 108 341 213 q 248 227 469 568 l 743 1163 l -711 0 l -565 -889 q -248 -385 -408 -589 q -160 -204 -287 -286 q -127 -82 -258 -114 q -96 -20 -315 -20 l -656 0 l 0 1897 l -565 0 m 565 -2387 l 1215 0 q 388 0 606 -80 q 219 -80 332 -256 q 114 -176 114 -383 q 0 -303 -220 -498 q -220 -195 -695 -195 l -1352 0 l 0 1414 Z M 664866 4360 l 0 -4273 l 1895 0 q 571 0 869 115 q 297 115 475 407 q 178 291 178 644 q 0 455 -294 767 q -294 312 -909 396 q 224 108 341 213 q 248 227 469 568 l 743 1163 l -711 0 l -565 -889 q -248 -385 -408 -589 q -160 -204 -287 -286 q -127 -82 -258 -114 q -96 -20 -315 -20 l -656 0 l 0 1897 l -565 0 m 565 -2387 l 1215 0 q 388 0 606 -80 q 219 -80 332 -256 q 114 -176 114 -383 q 0 -303 -220 -498 q -220 -195 -695 -195 l -1352 0 l 0 1414 Z M 669179 4360 l 0 -4273 l 3090 0 l 0 504 l -2524 0 l 0 1309 l 2364 0 l 0 501 l -2364 0 l 0 1454 l 2623 0 l 0 504 l -3189 0 Z M 674371 4360 l -1656 -4273 l 612 0 l 1111 3104 q 134 373 224 700 q 99 -350 230 -700 l 1154 -3104 l 577 0 l -1673 4273 l -580 0 Z M 677227 4360 l 0 -4273 l 565 0 l 0 4273 l -565 0 Z M 678801 4360 l 0 -4273 l 3090 0 l 0 504 l -2524 0 l 0 1309 l 2364 0 l 0 501 l -2364 0 l 0 1454 l 2623 0 l 0 504 l -3189 0 Z M 683517 4360 l -1134 -4273 l 580 0 l 650 2801 q 105 440 181 874 q 163 -685 192 -790 l 813 -2886 l 682 0 l 612 2163 q 230 804 332 1513 q 82 -405 213 -930 l 670 -2746 l 568 0 l -1172 4273 l -545 0 l -901 -3256 q -114 -408 -134 -501 q -67 294 -125 501 l -906 3256 l -577 0 Z" class="C5" /><path d="M 965247 406023 l 5697 0 l 0 -5697 l -5697 0 l 0 5697" class="C1" /><path d="M 968441 394059 l 0 -1792 l -309 0 l 0 -272 l 309 0 l 0 -220 q 0 -208 37 -309 q 51 -136 178 -221 q 127 -85 357 -85 q 148 0 326 35 l -52 305 q -109 -19 -206 -19 q -159 0 -225 68 q -66 68 -66 255 l 0 190 l 402 0 l 0 272 l -402 0 l 0 1792 l -348 0 Z M 970036 394059 l -785 -2064 l 369 0 l 443 1236 q 72 200 132 416 q 47 -163 130 -393 l 459 -1259 l 359 0 l -781 2064 l -326 0 Z M 972673 394059 l -350 0 l 0 -2229 q -126 120 -331 241 q -205 120 -368 181 l 0 -338 q 293 -138 513 -334 q 220 -196 311 -381 l 225 0 l 0 2860 Z M 974887 394059 l -350 0 l 0 -2229 q -126 120 -331 241 q -205 120 -368 181 l 0 -338 q 293 -138 513 -334 q 220 -196 311 -381 l 225 0 l 0 2860 Z M 977100 394059 l -350 0 l 0 -2229 q -126 120 -331 241 q -205 120 -368 181 l 0 -338 q 293 -138 513 -334 q 220 -196 311 -381 l 225 0 l 0 2860 Z" class="C2" /><path d="M 965247 292076 l 5697 0 l 0 -5697 l -5697 0 l 0 5697" class="C3" /><path d="M 968358 280112 l 0 -2849 l 350 0 l 0 1022 q 245 -284 618 -284 q 229 0 398 90 q 169 90 242 250 q 73 159 73 462 l 0 1308 l -350 0 l 0 -1308 q 0 -262 -114 -382 q -114 -120 -322 -120 q -155 0 -292 81 q -137 81 -195 219 q -58 138 -58 381 l 0 1129 l -350 0 Z M 971144 280112 l -785 -2064 l 369 0 l 443 1236 q 72 200 132 416 q 47 -163 130 -393 l 459 -1259 l 359 0 l -781 2064 l -326 0 Z M 974302 279776 l 0 336 l -1883 0 q -4 -126 41 -243 q 72 -192 230 -379 q 158 -187 458 -431 q 464 -381 628 -603 q 163 -222 163 -421 q 0 -208 -149 -351 q -149 -143 -388 -143 q -253 0 -404 152 q -152 152 -154 420 l -359 -37 q 37 -402 278 -613 q 241 -211 647 -211 q 410 0 649 227 q 239 227 239 564 q 0 171 -70 336 q -70 165 -232 348 q -162 183 -539 501 q -315 264 -404 359 q -89 94 -148 189 l 1397 0 Z M 975994 280112 l -350 0 l 0 -2229 q -126 120 -331 241 q -205 120 -368 181 l 0 -338 q 293 -138 513 -334 q 220 -196 311 -381 l 225 0 l 0 2860 Z M 978207 280112 l -350 0 l 0 -2229 q -126 120 -331 241 q -205 120 -368 181 l 0 -338 q 293 -138 513 -334 q 220 -196 311 -381 l 225 0 l 0 2860 Z" class="C2" /></g><circle cx="56931.2097" cy="393182.6737" r="3000.0" fill="red" opacity="0.8" stroke="white" stroke-width="600.0" /><text x="60931.2097" y="397182.6737" font-size="6069.73" fill="red">FV101</text><circle cx="170793.6292" cy="393182.6737" r="3000.0" fill="red" opacity="0.8" stroke="white" stroke-width="600.0" /><text x="174793.6292" y="397182.6737" font-size="6069.73" fill="red">FV102</text><circle cx="284656.0487" cy="393182.6737" r="3000.0" fill="red" opacity="0.8" stroke="white" stroke-width="600.0" /><text x="288656.0487" y="397182.6737" font-size="6069.73" fill="red">FV103</text><circle cx="56931.2097" cy="279463.8961" r="3000.0" fill="red" opacity="0.8" stroke="white" stroke-width="600.0" /><text x="60931.2097" y="283463.8961" font-size="6069.73" fill="red">HV201</text><circle cx="170793.6292" cy="279463.8961" r="3000.0" fill="red" opacity="0.8" stroke="white" stroke-width="600.0" /><text x="174793.6292" y="283463.8961" font-size="6069.73" fill="red">HV202</text><circle cx="284656.0487" cy="279463.8961" r="3000.0" fill="red" opacity="0.8" stroke="white" stroke-width="600.0" /><text x="288656.0487" y="283463.8961" font-size="6069.73" fill="red">HV203</text><circle cx="56931.2097" cy="165745.1184" r="3000.0" fill="red" opacity="0.8" stroke="white" stroke-width="600.0" /><text x="60931.2097" y="169745.1184" font-size="6069.73" fill="red">EV301</text><circle cx="170793.6292" cy="165745.1184" r="3000.0" fill="red" opacity="0.8" stroke="white" stroke-width="600.0" /><text x="174793.6292" y="169745.1184" font-size="6069.73" fill="red">EV302</text><circle cx="284656.0487" cy="165745.1184" r="3000.0" fill="red" opacity="0.8" stroke="white" stroke-width="600.0" /><text x="288656.0487" y="169745.1184" font-size="6069.73" fill="red">EV303</text><circle cx="398518.4682" cy="393182.6737" r="3000.0" fill="red" opacity="0.8" stroke="white" stroke-width="600.0" /><text x="402518.4682" y="397182.6737" font-size="6069.73" fill="red">CV401</text><circle cx="512380.8877" cy="52026.3408" r="3000.0" fill="red" opacity="0.8" stroke="white" stroke-width="600.0" /><text x="516380.8877" y="56026.3408" font-size="6069.73" fill="red">DV001</text><circle cx="626243.3071" cy="52026.3408" r="3000.0" fill="red" opacity="0.8" stroke="white" stroke-width="600.0" /><text x="630243.3071" y="56026.3408" font-size="6069.73" fill="red">DV002</text><circle cx="740105.7266" cy="52026.3408" r="3000.0" fill="red" opacity="0.8" stroke="white" stroke-width="600.0" /><text x="744105.7266" y="56026.3408" font-size="6069.73" fill="red">DV003</text><circle cx="967830.5656" cy="393182.6737" r="3000.0" fill="red" opacity="0.8" stroke="white" stroke-width="600.0" /><text x="971830.5656" y="397182.6737" font-size="6069.73" fill="red">FV111</text><circle cx="967830.5656" cy="279463.8961" r="3000.0" fill="red" opacity="0.8" stroke="white" stroke-width="600.0" /><text x="971830.5656" y="283463.8961" font-size="6069.73" fill="red">HV211</text></svg>